<svg xmlns="http://www.w3.org/2000/svg" viewBox="0 0 512 512">
  <defs>
    <linearGradient id="grad" x1="0%" y1="0%" x2="100%" y2="100%">
      <stop offset="0%" style="stop-color:#0d7ff2;stop-opacity:1" />
      <stop offset="100%" style="stop-color:#004b99;stop-opacity:1" />
    </linearGradient>
  </defs>
  <!-- Background is safe area for masking -->
  <rect width="512" height="512" fill="url(#grad)" />
  
  <g transform="translate(56, 56) scale(0.78)">
    <!-- Soccer Ball -->
    <circle cx="180" cy="180" r="70" fill="white" />
    <path d="M180 130 L195 155 L225 155 L200 180 L210 210 L180 195 L150 210 L160 180 L135 155 L165 155 Z" fill="#1c2630" />
    
    <!-- Basketball -->
    <circle cx="330" cy="330" r="70" fill="#f97316" />
    <path d="M330 260 L330 400 M260 330 L400 330 M275 285 C310 310 350 310 385 285 M275 375 C310 350 350 350 385 375" stroke="#1c2630" stroke-width="6" fill="none" />
    
    <!-- Tennis Ball -->
    <circle cx="340" cy="160" r="40" fill="#bef264" />
    <path d="M310 160 Q340 180 370 160" stroke="white" stroke-width="4" fill="none" />
    
    <!-- Sync Arrows -->
    <path d="M150 350 A100 100 0 0 1 350 150" stroke="white" stroke-width="20" stroke-linecap="round" fill="none" opacity="0.3" />
    <path d="M360 160 A100 100 0 0 1 160 360" stroke="white" stroke-width="20" stroke-linecap="round" fill="none" opacity="0.3" />
  </g>
</svg>